<svg width="14" height="9" viewBox="0 0 14 9" fill="none" xmlns="http://www.w3.org/2000/svg">
<rect width="14" height="9" fill="white"/>
<path fill-rule="evenodd" clip-rule="evenodd" d="M12.0967 2.26435L7.18445 6.06046C7.09456 6.12962 6.986 6.1642 6.87744 6.1642C6.76838 6.1642 6.65982 6.12962 6.56993 6.06046L1.65765 2.26435C1.44593 2.10093 1.41203 1.80251 1.58151 1.59835C1.75147 1.39467 2.06095 1.36199 2.27217 1.52493L6.87744 5.08372L11.4822 1.52493C11.6939 1.36151 12.0029 1.3942 12.1729 1.59835C12.3424 1.80251 12.3085 2.10093 12.0967 2.26435ZM12.7722 0.000143051H0.9827C0.439893 0.000143051 0.000244141 0.42409 0.000244141 0.947511V8.05277C0.000244141 8.57572 0.439893 9.00014 0.9827 9.00014H12.7722C13.3145 9.00014 13.7546 8.57572 13.7546 8.05277V0.947511C13.7546 0.42409 13.3145 0.000143051 12.7722 0.000143051Z" fill="#DBDBDB"/>
<mask id="mask0" style="mask-type:alpha" maskUnits="userSpaceOnUse" x="0" y="0" width="14" height="10">
<path fill-rule="evenodd" clip-rule="evenodd" d="M12.0967 2.26435L7.18445 6.06046C7.09456 6.12962 6.986 6.1642 6.87744 6.1642C6.76838 6.1642 6.65982 6.12962 6.56993 6.06046L1.65765 2.26435C1.44593 2.10093 1.41203 1.80251 1.58151 1.59835C1.75147 1.39467 2.06095 1.36199 2.27217 1.52493L6.87744 5.08372L11.4822 1.52493C11.6939 1.36151 12.0029 1.3942 12.1729 1.59835C12.3424 1.80251 12.3085 2.10093 12.0967 2.26435ZM12.7722 0.000143051H0.9827C0.439893 0.000143051 0.000244141 0.42409 0.000244141 0.947511V8.05277C0.000244141 8.57572 0.439893 9.00014 0.9827 9.00014H12.7722C13.3145 9.00014 13.7546 8.57572 13.7546 8.05277V0.947511C13.7546 0.42409 13.3145 0.000143051 12.7722 0.000143051Z" fill="white"/>
</mask>
<g mask="url(#mask0)">
<rect width="14" height="9" fill="#39393B"/>
</g>
</svg>
