<svg width="24" height="24" viewBox="0 0 24 24" fill="none" xmlns="http://www.w3.org/2000/svg">
<mask id="mask0" style="mask-type:alpha" maskUnits="userSpaceOnUse" x="0" y="0" width="24" height="24">
<path fill-rule="evenodd" clip-rule="evenodd" d="M23.7833 0.29193C23.8027 0.315883 23.8162 0.336842 23.8312 0.362292C23.903 0.477567 23.9539 0.604819 23.9539 0.748538V20.2105C23.9539 20.3542 23.903 20.4815 23.8312 20.5968C23.8147 20.6222 23.8012 20.6432 23.7833 20.6671C23.7009 20.7734 23.5976 20.8573 23.4704 20.9067C23.4681 20.9074 23.4663 20.9093 23.4644 20.9112C23.4625 20.913 23.4607 20.9149 23.4584 20.9156C23.3746 20.9441 23.2907 20.9591 23.2054 20.9591C23.0961 20.9591 22.9943 20.9336 22.9 20.8932C22.8873 20.8872 22.8759 20.8784 22.8644 20.8694C22.8557 20.8625 22.8468 20.8556 22.8371 20.8498C22.7683 20.8109 22.7039 20.7644 22.6515 20.7061C22.6476 20.7014 22.643 20.6984 22.6385 20.6955C22.6344 20.6928 22.6304 20.6902 22.6275 20.6866C20.2936 17.8526 17.039 15.9588 13.4744 15.2642V5.69637C17.039 5.00173 20.2936 3.10643 22.6275 0.272468C22.6305 0.269473 22.6343 0.267602 22.638 0.265731C22.6418 0.263859 22.6455 0.261988 22.6485 0.258994C22.7368 0.160187 22.8476 0.0883275 22.9764 0.0464094C22.9943 0.0407499 23.0116 0.0380619 23.0291 0.0353499C23.0394 0.0337575 23.0497 0.0321568 23.0602 0.0299415C23.0763 0.0265218 23.092 0.0221456 23.1075 0.0178013C23.1395 0.00883265 23.1711 0 23.2054 0C23.2722 0 23.333 0.0178565 23.3931 0.0355234C23.4004 0.0376685 23.4077 0.0398109 23.415 0.0419181C23.4225 0.0441638 23.4296 0.0434152 23.4367 0.0426666C23.4438 0.0419181 23.4509 0.0411696 23.4584 0.0434152C23.4607 0.0441637 23.4625 0.0460351 23.4644 0.0479064C23.4663 0.0497778 23.4681 0.0516491 23.4704 0.0523977C23.5976 0.101801 23.7009 0.187134 23.7833 0.29193ZM11.9773 5.91195V15.0471C11.8836 15.0383 11.79 15.0274 11.6964 15.0164C11.5345 14.9974 11.3725 14.9784 11.2093 14.9708H9.22122L11.7333 19.9964C12.0267 20.5519 11.9175 21.269 11.4579 21.7286L9.65987 23.5116C9.3874 23.796 9.00714 23.9547 8.60742 23.9547C8.50862 23.9547 8.40831 23.9442 8.30801 23.9233C7.802 23.8215 7.3903 23.4727 7.20616 22.9921L4.19704 14.9708H3.74342C3.33023 14.9708 2.99488 14.6354 2.99488 14.2222V13.4737H0.74927C0.336077 13.4737 0.000732422 13.1383 0.000732422 12.7251V8.23392C0.000732422 7.82073 0.336077 7.48538 0.74927 7.48538H2.99488V6.73684C2.99488 6.32365 3.33023 5.9883 3.74342 5.9883H11.2019C11.3667 5.98073 11.5297 5.96176 11.6928 5.94279C11.7875 5.93177 11.8822 5.92075 11.9773 5.91195Z" fill="white"/>
</mask>
<g mask="url(#mask0)">
<rect width="24" height="24" fill="white"/>
</g>
</svg>
