<svg width="24" height="24" viewBox="0 0 24 24" fill="none" xmlns="http://www.w3.org/2000/svg">
<mask id="mask0" style="mask-type:alpha" maskUnits="userSpaceOnUse" x="0" y="0" width="24" height="24">
<path fill-rule="evenodd" clip-rule="evenodd" d="M10.1885 15.4858C9.82973 15.2704 9.49106 15.0098 9.18136 14.7034L9.16106 14.6831C8.15972 13.6821 7.6088 12.3514 7.6088 10.9323C7.6088 9.5037 8.16731 8.16438 9.18141 7.16112L14.8536 1.54934C16.9417 -0.516445 20.3393 -0.516445 22.4273 1.54934L22.4477 1.56963C23.4489 2.57065 24 3.90148 24 5.32048C24 6.74909 23.4415 8.08835 22.4274 9.09162L17.7678 13.7014C17.7872 13.4921 17.7974 13.2808 17.7974 13.0678C17.7974 12.0978 17.593 11.1596 17.2052 10.3021L20.4491 7.09287C20.9235 6.62351 21.1857 5.99651 21.1875 5.32713C21.1893 4.65771 20.9304 4.0293 20.4565 3.55545L20.4492 3.54818C19.4688 2.57824 17.8123 2.57824 16.8319 3.54813L11.1596 9.15982C10.6853 9.62913 10.423 10.2563 10.4212 10.9256C10.4195 11.595 10.6783 12.2234 11.15 12.695L11.1596 12.7046C11.4432 12.9852 11.7836 13.1841 12.1477 13.3024C12.1044 13.5059 12.0044 13.6893 11.8513 13.8408L10.1885 15.4858ZM16.3509 12.4075C16.3984 12.7948 16.4038 13.1874 16.3673 13.576L16.3643 13.6075C16.2419 14.8313 15.704 15.9632 14.8187 16.839L9.14639 22.4507C7.05825 24.5165 3.6607 24.5165 1.57261 22.4507L1.55227 22.4304C0.550922 21.4294 0 20.0986 0 18.6796C0 17.251 0.558516 15.9117 1.57261 14.9084L6.23217 10.2986C6.21272 10.5079 6.20255 10.7193 6.20255 10.9322C6.2025 11.9023 6.40692 12.8405 6.79467 13.698L3.55078 16.9072C3.07645 17.3765 2.81423 18.0035 2.81241 18.6729C2.81067 19.3423 3.06952 19.9707 3.54122 20.4424L3.55078 20.4519C4.53117 21.4219 6.18773 21.4219 7.16813 20.4519L12.8404 14.8402C13.3147 14.3708 13.577 13.7438 13.5788 13.0744C13.5805 12.405 13.3217 11.7766 12.85 11.305L12.8404 11.2954C12.5568 11.0148 12.2164 10.816 11.8523 10.6977C11.8957 10.4942 11.9956 10.3108 12.1487 10.1592L13.8115 8.51421C14.1703 8.7297 14.5089 8.99027 14.8186 9.29665L14.839 9.3169C15.3047 9.78255 15.6729 10.3196 15.9337 10.9036C15.9571 10.9561 15.9796 11.0091 16.0013 11.0624C16.1757 11.4904 16.2937 11.9418 16.3509 12.4075Z" fill="white"/>
</mask>
<g mask="url(#mask0)">
<rect width="24" height="24" fill="white"/>
</g>
</svg>
