<svg width="24" height="24" viewBox="0 0 24 24" fill="none" xmlns="http://www.w3.org/2000/svg">
<mask id="mask0" style="mask-type:alpha" maskUnits="userSpaceOnUse" x="0" y="0" width="24" height="24">
<path fill-rule="evenodd" clip-rule="evenodd" d="M3.22519e-05 11.4C3.22519e-05 5.44478 5.38323 0.599976 12 0.599976C18.6168 0.599976 24 5.44478 24 11.4C24 17.3552 18.6168 22.2 12 22.2C10.2948 22.2 8.64843 21.884 7.10283 21.2604C4.38083 22.8316 0.617632 23.3732 0.455632 23.396C0.436832 23.3988 0.418432 23.4 0.400032 23.4C0.250032 23.4 0.110032 23.3156 0.0420323 23.1784C-0.0347678 23.0248 -0.00436775 22.8388 0.117232 22.7172C1.03723 21.7976 1.67083 19.8564 1.90723 17.2416C0.658432 15.498 3.22519e-05 13.4816 3.22519e-05 11.4ZM4.80003 11.4C4.80003 12.2824 5.51763 13 6.40003 13C7.28243 13 8.00003 12.2824 8.00003 11.4C8.00003 10.5176 7.28243 9.79998 6.40003 9.79998C5.51763 9.79998 4.80003 10.5176 4.80003 11.4ZM12 13C11.1176 13 10.4 12.2824 10.4 11.4C10.4 10.5176 11.1176 9.79998 12 9.79998C12.8824 9.79998 13.6 10.5176 13.6 11.4C13.6 12.2824 12.8824 13 12 13ZM16 11.4C16 12.2824 16.7176 13 17.6 13C18.4824 13 19.2 12.2824 19.2 11.4C19.2 10.5176 18.4824 9.79998 17.6 9.79998C16.7176 9.79998 16 10.5176 16 11.4Z" fill="white"/>
</mask>
<g mask="url(#mask0)">
<rect width="24" height="24" fill="url(#paint0_linear)"/>
</g>
<defs>
<linearGradient id="paint0_linear" x1="24" y1="24" x2="24" y2="0" gradientUnits="userSpaceOnUse">
<stop stop-color="#6F86D6"/>
<stop offset="1" stop-color="#48C6EF"/>
</linearGradient>
</defs>
</svg>
