<svg width="24" height="24" viewBox="0 0 24 24" fill="none" xmlns="http://www.w3.org/2000/svg">
<mask id="mask0" style="mask-type:alpha" maskUnits="userSpaceOnUse" x="0" y="2" width="24" height="20">
<path fill-rule="evenodd" clip-rule="evenodd" d="M14.2699 2.08247H9.68317C9.21406 2.08247 8.83377 2.46276 8.83377 2.93187V21.0439C8.83377 21.513 9.21406 21.8933 9.68317 21.8933H14.2699C14.739 21.8933 15.1193 21.513 15.1193 21.0439V2.93187C15.1193 2.46271 14.739 2.08247 14.2699 2.08247ZM23.132 12.6434H18.5453C18.0761 12.6434 17.6959 13.0236 17.6959 13.4928V21.0496C17.6959 21.5187 18.0761 21.899 18.5453 21.899H23.132C23.6011 21.899 23.9814 21.5187 23.9814 21.0496V13.4928C23.9814 13.0236 23.6011 12.6434 23.132 12.6434ZM0.849401 8.84936H5.43617C5.90527 8.84936 6.28557 9.22966 6.28557 9.69876V21.0383C6.28557 21.5074 5.90527 21.8877 5.43617 21.8877H0.849401C0.380295 21.8877 0 21.5074 0 21.0383V9.69876C0 9.22966 0.380295 8.84936 0.849401 8.84936Z" fill="white"/>
</mask>
<g mask="url(#mask0)">
<rect width="24" height="24" fill="white"/>
</g>
</svg>
