<svg width="24" height="24" viewBox="0 0 24 24" fill="none" xmlns="http://www.w3.org/2000/svg">
<mask id="mask0" style="mask-type:alpha" maskUnits="userSpaceOnUse" x="0" y="4" width="24" height="16">
<path fill-rule="evenodd" clip-rule="evenodd" d="M4.07259 7.27926L8.07206 11.2787C8.97989 10.5525 10.0825 10.0805 11.2969 9.94387V4.28343C8.53125 4.44548 6.02016 5.54676 4.07259 7.27926ZM3.07833 8.27353C1.19925 10.3858 0 13.158 0 16.2009C0 16.5896 0.314484 16.9041 0.703125 16.9041H4.96875C5.35739 16.9041 5.67188 16.5896 5.67188 16.2009C5.67188 14.7097 6.21173 13.3557 7.0778 12.273L3.07833 8.27353ZM16.5909 10.6392C16.8525 10.4696 17.1958 10.4963 17.4327 10.703C17.6676 10.909 17.7383 11.2454 17.6064 11.5283L14.5502 18.0899C14.0915 19.078 13.0904 19.7166 12 19.7166C10.4489 19.7166 9.1875 18.4552 9.1875 16.9041C9.1875 15.9386 9.67364 15.0522 10.4887 14.5317L16.5909 10.6392ZM20.9217 8.27353L18.855 10.3402C19.1153 10.8957 19.1495 11.546 18.8809 12.1222L17.9563 14.1072C18.1943 14.761 18.3281 15.4638 18.3281 16.2009C18.3281 16.5896 18.6426 16.9041 19.0312 16.9041H23.2969C23.6855 16.9041 24 16.5896 24 16.2009C24 13.158 22.8008 10.3858 20.9217 8.27353ZM12.7031 9.94387V4.28343C15.4688 4.44548 17.9798 5.54676 19.9274 7.27926L17.8602 9.34649C17.1226 8.99709 16.4145 9.07767 15.8349 9.45323L14.3884 10.376C13.8592 10.1595 13.2951 10.0105 12.7031 9.94387Z" fill="white"/>
</mask>
<g mask="url(#mask0)">
<rect width="24" height="24" fill="white"/>
</g>
</svg>
