<svg width="24" height="24" viewBox="0 0 24 24" fill="none" xmlns="http://www.w3.org/2000/svg">
<mask id="mask0" style="mask-type:alpha" maskUnits="userSpaceOnUse" x="0" y="0" width="24" height="22">
<path d="M22.0961 2.0896C20.8537 0.742126 19.149 0 17.2956 0C15.9102 0 14.6415 0.437988 13.5245 1.3017C12.9609 1.73767 12.4503 2.27106 12 2.89362C11.5499 2.27124 11.0391 1.73767 10.4753 1.3017C9.35852 0.437988 8.08978 0 6.70441 0C4.85101 0 3.14612 0.742126 1.90375 2.0896C0.676208 3.42133 0 5.24066 0 7.21271C0 9.24243 0.756409 11.1004 2.38037 13.06C3.83313 14.8129 5.92108 16.5923 8.33899 18.6528C9.16461 19.3564 10.1005 20.1541 11.0722 21.0037C11.3289 21.2285 11.6583 21.3523 12 21.3523C12.3415 21.3523 12.6711 21.2285 12.9274 21.004C13.8992 20.1542 14.8356 19.3563 15.6616 18.6522C18.0791 16.5921 20.1671 14.8129 21.6198 13.0598C23.2438 11.1004 24 9.24243 24 7.21252C24 5.24066 23.3238 3.42133 22.0961 2.0896Z" fill="white"/>
</mask>
<g mask="url(#mask0)">
<rect width="24" height="24" fill="white"/>
</g>
</svg>
