<svg width="24" height="24" viewBox="0 0 24 24" fill="none" xmlns="http://www.w3.org/2000/svg">
<mask id="mask0" style="mask-type:alpha" maskUnits="userSpaceOnUse" x="0" y="0" width="24" height="24">
<path fill-rule="evenodd" clip-rule="evenodd" d="M23.2969 0H0.703125C0.314813 0 0 0.314813 0 0.703125V21.0375V23.2969C0 23.6852 0.314813 24 0.703125 24H23.2969C23.6852 24 24 23.6852 24 23.2969V21.0375V0.703125C24 0.314813 23.6852 0 23.2969 0ZM22.5938 19.0955L18.1886 13.8093C18.068 13.6645 17.8942 13.5742 17.7065 13.5586C17.5186 13.543 17.3325 13.6036 17.1897 13.7265L13.7361 16.7001L7.64784 9.29414C7.5007 9.11517 7.27467 9.0202 7.04414 9.04012C6.81333 9.06009 6.60717 9.19242 6.49294 9.39403L1.40625 18.3705V1.40625H22.5938V19.0955ZM13.5563 7.48125C13.5563 5.84775 14.8853 4.51875 16.5188 4.51875C18.1523 4.51875 19.4812 5.8478 19.4812 7.4813C19.4812 9.1148 18.1523 10.4438 16.5188 10.4438C14.8853 10.4438 13.5563 9.11475 13.5563 7.48125Z" fill="white"/>
</mask>
<g mask="url(#mask0)">
<rect width="24" height="24" fill="white"/>
</g>
</svg>
