<svg width="24" height="24" viewBox="0 0 24 24" fill="none" xmlns="http://www.w3.org/2000/svg">
<mask id="mask0" style="mask-type:alpha" maskUnits="userSpaceOnUse" x="0" y="0" width="24" height="24">
<path fill-rule="evenodd" clip-rule="evenodd" d="M14.2671 1.65055C18.312 4.51438 19.27 10.1154 16.4055 14.1604L22.9174 20.6236C22.9413 20.6462 22.9632 20.6681 22.9858 20.6921C23.6995 21.4441 23.6694 22.6328 22.9174 23.3465C22.1653 24.0609 20.9767 24.0308 20.2623 23.2787L13.6457 16.7019C10.6005 18.5002 6.78348 18.3428 3.89639 16.2988C-0.149234 13.435 -1.10658 7.83463 1.75724 3.7897C4.62107 -0.255924 10.2221 -1.21327 14.2671 1.65055ZM3.28598 8.98837C3.28804 12.1848 5.87951 14.7742 9.0759 14.7735H9.08001C12.2778 14.768 14.8658 12.1725 14.8603 8.97537C14.8542 5.78308 12.2641 3.19777 9.0718 3.19914C5.87472 3.20051 3.2853 5.79198 3.28598 8.98837Z" fill="white"/>
</mask>
<g mask="url(#mask0)">
<rect width="24" height="24" fill="white"/>
</g>
</svg>
