<svg width="24" height="24" viewBox="0 0 24 24" fill="none" xmlns="http://www.w3.org/2000/svg">
<mask id="mask0" style="mask-type:alpha" maskUnits="userSpaceOnUse" x="0" y="0" width="24" height="24">
<path fill-rule="evenodd" clip-rule="evenodd" d="M21.1713 0.0166554C17.7683 0.374405 12.713 6.4203 10.5733 9.07431L15.1985 13.6997C17.8023 11.4543 23.8136 6.08148 23.9955 2.668C24.0838 1.02916 22.8071 -0.155704 21.1713 0.0166554ZM8.15314 12.2039C10.1928 12.7755 11.6541 14.3857 12.2125 16.1754C12.7474 15.7487 13.4017 15.2181 14.1236 14.6134L9.69298 10.1825C9.09533 10.9471 8.57173 11.6395 8.15314 12.2039ZM1.2803 19.0027C1.34977 17.8449 1.42324 16.6203 2.45933 15.3252C4.196 13.1545 7.64075 12.6251 9.69429 14.6788C11.825 16.8097 11.2817 19.9985 9.52545 21.8503C7.65753 23.8199 3.62708 24.7096 0.426592 23.3394C-0.0233147 23.1468 -0.143362 22.5639 0.193154 22.2091C1.14835 21.2019 1.21241 20.1343 1.2803 19.0027Z" fill="white"/>
</mask>
<g mask="url(#mask0)">
<rect width="24" height="24" fill="white"/>
</g>
</svg>
