<svg width="24" height="24" viewBox="0 0 24 24" fill="none" xmlns="http://www.w3.org/2000/svg">
<mask id="mask0" style="mask-type:alpha" maskUnits="userSpaceOnUse" x="0" y="1" width="24" height="22">
<path fill-rule="evenodd" clip-rule="evenodd" d="M21.7969 11.2969H12.6562V2.15625C12.6562 1.76812 12.3413 1.45312 11.9531 1.45312C7.64016 1.45312 3.80109 4.05797 2.18953 8.00391L12.1753 11.333C12.6066 11.4764 12.7908 11.9864 12.5494 12.3727L6.97078 21.2981C8.49703 22.117 10.2052 22.5469 11.9531 22.5469C17.782 22.5469 22.5 17.8298 22.5 12C22.5 11.6119 22.185 11.2969 21.7969 11.2969ZM23.2969 8.48438H22.5V3.5625C22.5 3.17419 22.1852 2.85938 21.7969 2.85938C21.4086 2.85938 21.0938 3.17419 21.0938 3.5625V8.48438H19.6875V4.96875C19.6875 4.58044 19.3727 4.26562 18.9844 4.26562C18.5961 4.26562 18.2812 4.58044 18.2812 4.96875V8.48438H16.875V6.375C16.875 5.98669 16.5602 5.67188 16.1719 5.67188C15.7836 5.67188 15.4688 5.98669 15.4688 6.375V8.48438H14.7656C14.3773 8.48438 14.0625 8.79919 14.0625 9.1875C14.0625 9.57581 14.3773 9.89062 14.7656 9.89062H23.2969C23.6852 9.89062 24 9.57581 24 9.1875C24 8.79919 23.6852 8.48438 23.2969 8.48438ZM0.227437 9.66727C0.309469 9.25256 0.73725 9.00248 1.14042 9.13688L10.8834 12.3848L5.44083 21.0927C5.21728 21.4504 4.72889 21.5333 4.39922 21.2642C1.68886 19.0518 0 15.6975 0 12C0 11.212 0.0762187 10.4318 0.227437 9.66727Z" fill="white"/>
</mask>
<g mask="url(#mask0)">
<rect width="24" height="24" fill="white"/>
</g>
</svg>
