<svg width="24" height="24" viewBox="0 0 24 24" fill="none" xmlns="http://www.w3.org/2000/svg">
<mask id="mask0" style="mask-type:alpha" maskUnits="userSpaceOnUse" x="1" y="1" width="22" height="22">
<path fill-rule="evenodd" clip-rule="evenodd" d="M22.425 7.65001L16.425 12.15C15.928 12.5228 15.2228 12.4221 14.85 11.925C14.4772 11.428 14.578 10.7228 15.075 10.35L19.875 6.75001L15.075 3.15001C14.7535 2.90885 14.585 2.51448 14.6331 2.11544C14.6812 1.7164 14.9385 1.37333 15.3081 1.21544C15.6777 1.05756 16.1035 1.10885 16.425 1.35001L22.425 5.85001C22.7083 6.06247 22.875 6.39591 22.875 6.75001C22.875 7.10411 22.7083 7.43755 22.425 7.65001ZM3.37501 21.75C3.3746 14.1366 9.50992 7.94529 17.123 7.87656L18.625 6.75001L17.127 5.62651C8.26643 5.68539 1.11688 12.8892 1.12501 21.75C1.12501 22.3713 1.62869 22.875 2.25001 22.875C2.87133 22.875 3.37501 22.3713 3.37501 21.75Z" fill="white"/>
</mask>
<g mask="url(#mask0)">
<rect width="24" height="24" fill="white"/>
</g>
</svg>
